<svg xmlns="http://www.w3.org/2000/svg">
      <symbol viewBox="0 0 18 18" id="user-nav-search">
        <path d="M17.6932 16.0568L14.2159 12.5795C15.2386 11.25 15.75 9.61364 15.75 7.875C15.75 3.47727 12.2727 0 7.875 0C3.47727 0 0 3.47727 0 7.875C0 12.2727 3.47727 15.75 7.875 15.75C9.61364 15.75 11.25 15.1364 12.5795 14.2159L16.0568 17.6932C16.2614 17.8977 16.4659 18 16.875 18C17.4886 18 18 17.4886 18 16.875C18 16.6705 17.8977 16.3636 17.6932 16.0568ZM2.25 7.875C2.25 4.80682 4.80682 2.25 7.875 2.25C10.9432 2.25 13.5 4.80682 13.5 7.875C13.5 10.9432 10.9432 13.5 7.875 13.5C4.80682 13.5 2.25 10.9432 2.25 7.875Z"/>
      </symbol>
      <symbol viewBox="0 0 21 18" id="user-nav-basket">
        <path d="M20.1884 6.85716H16.6377L13.1884 0.380944C12.9855 -8.61287e-06 12.5797 -0.0952351 12.1739 0.0952412C11.7681 0.285717 11.6667 0.66667 11.8696 1.04762L15.0145 6.85716H5.7826L8.92753 1.04762C9.13043 0.66667 8.92754 0.285717 8.6232 0.0952412C8.2174 -0.0952351 7.8116 0.0952295 7.6087 0.380944L4.1594 6.85716H0.811583C0.405785 6.85716 0 7.14286 0 7.61905C0 8 0.304336 8.38094 0.811583 8.38094H1.01449L1.92753 11.2381C1.72463 11.3333 1.62317 11.5238 1.62317 11.8095C1.62317 12.1905 1.92753 12.4762 2.33332 12.4762L4.05797 18H16.942L18.6667 12.4762C19.0725 12.4762 19.3768 12.1905 19.3768 11.8095C19.3768 11.619 19.2754 11.3333 19.0725 11.2381L19.9855 8.38094H20.1884C20.5942 8.38094 21 8.09524 21 7.61905C21 7.14286 20.5942 6.85716 20.1884 6.85716ZM15.6232 16.4762H5.07247L3.85506 12.381H16.942L15.6232 16.4762ZM17.2464 10.9524H3.34782L2.53623 8.28573H18.058L17.2464 10.9524Z"/>
      </symbol>
      <symbol viewBox="0 0 41 62" id="icon-lamp">
        <g opacity="0.5">
        <path d="M15.5024 37.7564C15.1965 38.75 15.2985 39.9423 15.5024 41.3333C16.0124 43.9166 17.2363 47.2949 17.9502 50.9711H23.1517C23.8656 47.3942 25.0895 44.016 25.7014 41.3333C26.0074 39.9423 26.0074 38.6506 25.7014 37.7564C25.3955 36.8622 24.7835 36.1666 23.6616 35.4711H17.5422C16.3184 36.1666 15.7064 36.8622 15.5024 37.7564Z" fill="#149080"/>
        <path d="M27.5373 57.6282H13.4627C12.1368 57.6282 11.1169 58.6218 11.1169 59.8141V62H13.4627H27.5373H29.8831V59.8141C29.8831 58.6218 28.8632 57.6282 27.5373 57.6282Z" fill="#149080"/>
        <path d="M34.7786 2.28587H22.8458C22.8458 1.09357 21.8259 0.0999756 20.5 0.0999756C19.1741 0.0999756 18.1542 1.09357 18.1542 2.28587H6.22138L0 27.6224C0.81592 27.1256 1.63185 26.6288 2.65175 26.6288C4.07961 26.6288 4.89552 27.4237 5.60945 28.0198C6.32338 28.616 6.83333 28.8147 7.03731 28.8147C7.34328 28.8147 7.85323 28.5166 8.56716 28.0198C9.28109 27.5231 10.199 26.6288 11.5249 26.6288C12.8507 26.6288 13.7687 27.4237 14.4826 28.0198C15.1965 28.5166 15.7065 28.8147 16.0124 28.8147C16.1144 28.8147 16.3184 28.7154 16.6244 28.616C16.8283 28.5166 17.1343 28.2186 17.5423 28.0198C18.0522 27.6224 18.6642 27.0263 19.5821 26.8275C19.8881 26.7282 20.194 26.7282 20.5 26.7282C21.8259 26.7282 22.7438 27.5231 23.4577 28.1192C24.1716 28.616 24.6816 28.9141 24.9876 28.9141C25.2935 28.9141 25.8035 28.616 26.4154 28.1192C27.1293 27.5231 28.0472 26.7282 29.3731 26.7282C30.801 26.7282 31.6169 27.5231 32.3308 28.1192C32.6368 28.4173 32.9428 28.616 33.2487 28.7154C33.4527 28.8147 33.6567 28.9141 33.8607 28.9141C34.1667 28.9141 34.6766 28.616 35.2885 28.0198C36.0025 27.4237 36.9204 26.6288 38.2463 26.6288C39.2662 26.6288 40.0821 27.1256 40.898 27.6224L34.7786 2.28587Z" fill="#149080"/>
        <path d="M23.9676 53.157H16.9302C16.2163 53.157 15.8083 53.6538 15.8083 54.25C15.8083 54.8461 16.3183 55.3429 16.9302 55.3429H23.9676C24.6815 55.3429 25.0894 54.8461 25.0894 54.25C25.1914 53.6538 24.6815 53.157 23.9676 53.157Z" fill="#149080"/>
        <path d="M20.5 28.8141C20.398 28.8141 20.194 28.9134 19.8881 29.0128C19.6841 29.1122 19.4801 29.3109 19.2761 29.4102V33.0865H21.6219V29.5096C21.1119 29.1122 20.704 28.8141 20.5 28.8141Z" fill="#149080"/>
        </g>
      </symbol>
      <symbol viewBox="0 0 60 61" id="icon-detail">
        <path opacity="0.5" d="M0 44.7265L27.4 61V37.1527L0 20.7768V44.7265ZM51.3 12.6913V15.25C51.3 17.0923 47.8 18.6275 43.6 18.6275C39.3 18.6275 35.9 17.0923 35.9 15.25V11.0537C36.2 12.7936 39.5 14.2265 43.6 14.2265C47.9 14.2265 51.3 12.6913 51.3 10.849C51.3 9.00672 47.8 7.47148 43.6 7.47148C43.3 7.47148 42.9 7.47148 42.6 7.47148L37.6 4.50337V7.67617C37.6 9.51846 34.1 11.0537 29.9 11.0537C27.2 11.0537 24.9 10.4396 23.5 9.51846C23.3 9.31376 23.1 9.10906 22.8 8.90436C22.4 8.49496 22.2 8.08557 22.2 7.67617V4.6057L17.4 7.47148C17.1 7.47148 16.7 7.47148 16.3 7.47148C12 7.47148 8.60001 9.00672 8.60001 10.849C8.60001 12.6913 12.1 14.2265 16.3 14.2265C20.4 14.2265 23.7 12.7936 24 11.0537V15.25C24 17.0923 20.5 18.6275 16.3 18.6275C12 18.6275 8.60001 17.0923 8.60001 15.25V12.7936L2.60001 16.3758L30.1 32.7517L57.5 16.4782L51.3 12.6913ZM37.7 23.1309C37.7 24.9732 34.2 26.5084 30 26.5084C25.7 26.5084 22.3 24.9732 22.3 23.1309V18.9346C22.6 20.6745 25.9 22.1074 30 22.1074C34.1 22.1074 37.4 20.6745 37.7 18.9346V23.1309ZM32.6 37.3574V61L60 44.7265V21.0839L32.6 37.3574ZM29.9 6.75504C34.2 6.75504 37.6 5.2198 37.6 3.37752C37.6 1.53524 34.1 0 29.9 0C25.6 0 22.2 1.53524 22.2 3.37752C22.2 5.2198 25.6 6.75504 29.9 6.75504Z" fill="#149080"/>
      </symbol>
      <symbol viewBox="0 0 33 38" id="about-us-icon-flower">
        <path d="M16.5 38C25.575 38 33 30.6452 33 21.6559C23.925 21.6559 16.5 28.9086 16.5 38ZM4.74375 16.6505C4.74375 19.2043 6.80625 21.1452 9.28125 21.1452C10.2094 21.1452 11.1375 20.8387 11.8594 20.328V20.6344C11.8594 23.1882 13.9219 25.129 16.3969 25.129C18.975 25.129 20.9344 23.086 20.9344 20.6344V20.328C21.6562 20.8387 22.5844 21.1452 23.5125 21.1452C26.0906 21.1452 28.05 19.1021 28.05 16.6505C28.05 14.8118 27.0188 13.2796 25.4719 12.5645C27.0188 11.8495 28.05 10.3172 28.05 8.47849C28.05 5.92473 25.9875 3.98387 23.5125 3.98387C22.5844 3.98387 21.6562 4.29032 20.9344 4.80107V4.49462C20.9344 1.94086 18.8719 0 16.3969 0C13.8187 0 11.8594 2.04301 11.8594 4.49462V4.80107C11.1375 4.29032 10.2094 3.98387 9.28125 3.98387C6.70312 3.98387 4.74375 6.02688 4.74375 8.47849C4.74375 10.3172 5.775 11.8495 7.32188 12.5645C5.87813 13.2796 4.74375 14.8118 4.74375 16.6505ZM16.5 7.96774C19.0781 7.96774 21.0375 10.0108 21.0375 12.4624C21.0375 15.0161 18.975 16.957 16.5 16.957C13.9219 16.957 11.9625 14.914 11.9625 12.4624C11.9625 10.0108 13.9219 7.96774 16.5 7.96774ZM0 21.6559C0 30.6452 7.425 38 16.5 38C16.5 28.9086 9.075 21.6559 0 21.6559Z" fill="#63D1BB"/>
      </symbol>
      <symbol viewBox="0 0 35 34" id="about-us-icon-thread">
        <path d="M0.305558 13.9528C-0.101853 16.0303 -0.101853 18.1079 0.305558 20.1854L4.48152 17.0196L0.305558 13.9528Z" fill="#63D1BB"/>
        <path d="M24.852 1.586C19.9631 -0.590493 14.2593 -0.590493 9.26855 1.98172L16.9075 7.52187L24.852 1.586Z" fill="#63D1BB"/>
        <path d="M34.5281 13.062L29.6392 16.7225L34.6299 20.3829C35.1392 18.0086 35.1392 15.4364 34.5281 13.062Z" fill="#63D1BB"/>
        <path d="M9.37036 32.057C14.2593 34.5303 20.2686 34.7281 25.3612 32.1559L17.1112 26.1211L9.37036 32.057Z" fill="#63D1BB"/>
        <path d="M8.04644 14.2488L1.73157 9.698C1.42601 10.3905 1.12045 11.083 0.916748 11.7756L6.31494 15.7328L8.04644 14.2488Z" fill="#63D1BB"/>
        <path d="M18.9446 24.8349L27.3984 30.9686C27.7039 30.7707 28.0095 30.5729 28.2132 30.375C28.5187 30.1772 28.8243 29.8804 29.1298 29.5836L20.6761 23.4498L18.9446 24.8349Z" fill="#63D1BB"/>
        <path d="M11.6112 11.5781L4.07408 6.13684C3.56482 6.6315 3.15741 7.22509 2.75 7.81867L9.77784 12.9631L11.6112 11.5781Z" fill="#63D1BB"/>
        <path d="M22.5095 22.1635L30.7596 28.1983C31.2689 27.7036 31.6763 27.11 32.0837 26.5165L24.241 20.7784L22.5095 22.1635Z" fill="#63D1BB"/>
        <path d="M15.176 8.90696L7.3333 3.16895C7.1296 3.26788 6.92589 3.46574 6.72219 3.56467C6.31478 3.86146 5.90736 4.15826 5.60181 4.55398L13.4445 10.1931L15.176 8.90696Z" fill="#63D1BB"/>
        <path d="M26.0742 19.3936L33.2039 24.538C33.5095 23.8455 33.815 23.2519 34.1206 22.5594L27.9076 18.0085L26.0742 19.3936Z" fill="#63D1BB"/>
        <path d="M26.8892 2.67419L0.916748 22.3615C1.12045 23.054 1.42601 23.7466 1.73157 24.4391L28.7225 3.9603C28.2133 3.46564 27.6022 3.06992 26.8892 2.67419Z" fill="#63D1BB"/>
        <path d="M31.2687 6.53234C30.9632 6.13661 30.6576 5.74089 30.352 5.44409L2.85181 26.2197C3.05551 26.7143 3.36107 27.11 3.66663 27.4068C3.76848 27.6047 3.97219 27.8026 4.07404 27.9015L31.778 7.12592C31.5743 6.92806 31.4724 6.7302 31.2687 6.53234Z" fill="#63D1BB"/>
        <path d="M32.8983 8.90674L5.70361 29.4844C6.21288 29.9791 6.82399 30.4738 7.43511 30.8695L33.9168 10.8854C33.6112 10.1928 33.3057 9.50033 32.8983 8.90674Z" fill="#63D1BB"/>
      </symbol>
      <symbol viewBox="0 0 47 27" id="about-us-icon-money">
        <path d="M43.0665 0H3.93347C1.71459 0 0 1.68132 0 3.85714V23.1429C0 25.3187 1.71459 27 3.93347 27H43.0665C45.2854 27 47 25.3187 47 23.1429V3.85714C47 1.78022 45.1845 0 43.0665 0ZM3.02575 24.7253V2.76923H43.5708V24.7253H3.02575Z" fill="#63D1BB"/>
        <path d="M6.95923 20.8683H39.6373V6.62659H6.95923V20.8683ZM23.5 8.50571C26.4249 8.50571 28.8455 10.8793 28.8455 13.7475C28.8455 16.6156 26.4249 18.9892 23.5 18.9892C20.5751 18.9892 18.1545 16.6156 18.1545 13.7475C18.1545 10.7804 20.5751 8.50571 23.5 8.50571Z" fill="#63D1BB"/>
      </symbol>
      <symbol viewBox="0 0 55 23" id="about-us-icon-rocket">
        <path d="M40.9467 5.75002C37.307 4.75864 33.0607 4.06466 28.41 4.06466C25.478 4.06466 22.8493 4.26294 20.625 4.65949L13.75 0H0.10114L5.9651 6.14656H14.4577C9.80697 7.73277 7.58272 9.61639 7.58272 9.61639V13.3836C7.58272 13.3836 9.90811 15.2672 14.5588 16.8534H5.86396L0 23H13.6489L20.5239 18.3405C22.8492 18.7371 25.3768 18.9354 28.3088 18.9354C32.8584 18.9354 37.1048 18.2414 40.8456 17.25C39.6324 15.4655 38.9246 13.5819 38.9246 11.4009C39.0257 9.4181 39.8345 7.5345 40.9467 5.75002Z" fill="#63D1BB"/>
        <path d="M44.4852 6.74121C43.1709 8.32742 42.4631 9.91361 42.4631 11.4998C42.4631 13.086 43.1709 14.6722 44.4852 16.2585C50.9558 14.0774 54.9999 11.4998 54.9999 11.4998C54.9999 11.4998 50.9558 8.92224 44.4852 6.74121Z" fill="#63D1BB"/>
      </symbol>
      <symbol viewBox="0 0 34 27" id="about-us-icon-like">
        <path d="M34 8.44964C34 3.78777 29.9818 0 25.0364 0C21.5333 0 18.5455 1.94245 17 4.66187C15.5576 1.94245 12.4667 0 8.96364 0C4.01818 0 0 3.78777 0 8.44964C0 17.2878 15.1455 27 17 27C18.9576 27 34 17.3849 34 8.44964Z" fill="#63D1BB"/>
      </symbol>
      <symbol viewBox="0 0 33 32" id="about-us-icon-present">
        <path d="M3.02752 32H15.6422V18.2716H3.02752V32ZM31.3853 8.69136H24.0183C24.5229 8.39506 25.0275 8.19753 25.4312 7.90123C27.0459 6.81481 27.8532 5.33333 27.8532 3.95062C27.8532 2.76543 27.2477 1.77777 26.4404 1.08641C25.633 0.395053 24.5229 0 23.4128 0C22.2018 0 20.9908 0.395053 20.0826 1.08641C18.5688 2.07406 17.4587 3.55555 16.6514 5.1358C16.6514 5.23456 16.5505 5.33333 16.5505 5.33333C16.2477 4.74073 15.945 4.14814 15.5413 3.55555C14.8349 2.56789 14.0275 1.679 13.0183 1.08641C12.0092 0.493818 10.8991 0 9.68807 0C8.47706 0 7.36697 0.49383 6.45871 1.28395C5.65137 2.07408 5.04587 3.16049 5.04587 4.34567C5.04587 5.03703 5.2477 5.82715 5.65137 6.51851C6.25687 7.4074 7.06422 8.09877 8.27523 8.69136H1.61467C0.706413 8.69136 0 9.38271 0 10.2716V16.0988H15.5413V8.69136H17.4587V16.0988H33V10.2716C33 9.38271 32.2936 8.69136 31.3853 8.69136ZM8.88073 6.41975C8.27522 6.02469 7.87155 5.62962 7.66972 5.33333C7.46788 4.93826 7.36696 4.64197 7.36696 4.34567C7.36696 3.85184 7.56881 3.35802 8.0734 2.86419C8.47707 2.46913 9.08256 2.17284 9.68807 2.17284C10.3945 2.17284 11.1009 2.37036 11.7064 2.86419C12.7156 3.55555 13.7248 4.64196 14.3303 6.02468C14.633 6.71604 14.9358 7.4074 15.1376 8.09876C12.0092 7.80246 9.99082 7.11111 8.88073 6.41975ZM19.4771 4.8395C20.0826 4.04938 20.6881 3.35802 21.3945 2.96296C22.1009 2.46914 22.8073 2.27161 23.4128 2.27161C24.0183 2.27161 24.5229 2.46914 24.9266 2.76543C25.3303 3.06173 25.5321 3.45679 25.5321 3.95062C25.5321 4.44444 25.2294 5.23456 24.0183 6.02468C22.9083 6.8148 20.8899 7.7037 17.8624 8.29629C18.1651 7.1111 18.7706 5.82715 19.4771 4.8395ZM17.4587 32H30.0734V18.2716H17.4587V32Z" fill="#63D1BB"/>
      </symbol>
      <symbol viewBox="0 0 50 26" id="slider-arrow-prev">
        <path d="M50 11H7.7L15.8 2.8L13 0L0 13L13 26L15.8 23.2L7.7 15H50V11Z" fill="black"/>
      </symbol>
      <symbol viewBox="0 0 50 26" id="slider-arrow-next">
        <path d="M0 11H42.3L34.2 2.8L37 0L50 13L37 26L34.2 23.2L42.3 15H0V11Z" fill="black"/>
      </symbol>
      <symbol viewBox="0 0 47 82" id="icon-flag">
        <path d="M7.76611 4.76697V43.3337L47 24.0007L7.76611 4.76697ZM0 81.9004V0.900391H3.83261V81.9004H0Z" fill="#63D1BB"/>
        <path d="M3.83262 1H0V82H3.83262V1Z" fill="#231F20"/>
      </symbol>
      <symbol viewBox="0 0 102 35" id="logo-footer">
        <path d="M19.2204 21.5C19.1204 18.8 18.7204 16.2 18.7204 13.5C18.7204 11.3 19.1204 9.09997 18.3204 6.99997C18.3204 6.79997 18.4204 6.49997 18.4204 6.29997C18.6204 5.29997 15.1204 5.79997 14.6204 6.79997C14.3204 7.09997 14.1204 7.39997 14.2204 7.79997C14.2204 7.89997 14.3204 7.99997 14.3204 8.09997C13.6204 11.3 12.7204 14.4 11.7204 17.5C11.3204 18.7 10.8204 19.8 10.4204 21C9.82041 19.9 9.22041 18.8 8.82041 17.6C7.42041 14.2 6.22041 10.7 4.52041 7.39997C4.72041 5.89997 1.32041 5.99997 0.620408 7.39997C-0.179592 9.09997 -0.0795918 10.8 0.220408 12.6C0.520408 14.6 0.620408 16.6 0.620408 18.7C0.620408 22.7 1.02041 26.6 1.02041 30.6C0.620408 31 0.520408 31.5 0.920408 32C1.12041 32.2 1.32041 32.4 1.52041 32.5C2.52041 33.2 5.12041 32.6 5.12041 31.2C5.12041 27.1 4.82041 23 4.72041 18.8C4.72041 18.4 4.72041 18 4.72041 17.6C4.82041 17.7 4.82041 17.9 4.92041 18C5.52041 19.6 6.22041 21.2 7.12041 22.7C8.02041 24.2 8.42041 25.8 8.92041 27.4C8.72041 27.6 8.62041 27.9 8.72041 28.1C8.72041 28.3 8.82041 28.4 9.02041 28.5C9.62041 29 10.8204 28.8 11.5204 28.5C11.8204 28.4 12.1204 28.2 12.3204 28.1C12.6204 27.9 13.2204 27.4 13.0204 26.9C13.0204 26.8 12.9204 26.7 12.9204 26.6C13.4204 25.3 13.6204 24 13.9204 22.7C14.2204 21.3 14.7204 19.9 15.2204 18.6C15.3204 19.2 15.3204 19.8 15.4204 20.5C15.6204 23.1 15.4204 25.6 15.4204 28.1C15.4204 28.9 15.5204 29.7 15.6204 30.6C15.7204 30.9 16.0204 32.4 15.9204 32.5C15.1204 33 15.3204 33.6 16.1204 33.8C17.0204 34 18.2204 33.7 18.9204 33.1C20.1204 32 19.5204 30.3 19.3204 28.9C18.8204 26.5 19.3204 23.9 19.2204 21.5Z"/>
        <path d="M27.6204 22.2001C27.5204 20.2001 26.8204 18.3001 26.8204 16.3001C26.8204 14.0001 27.0204 11.7001 26.6204 9.40009C26.5204 8.70009 22.5204 9.50009 22.7204 10.4001C23.0204 12.5001 22.9204 14.6001 22.9204 16.8001C22.9204 18.8001 23.4204 20.7001 23.6204 22.7001C23.9204 24.8001 23.5204 26.9001 23.7204 28.9001C23.8204 29.9001 24.5204 31.6001 23.8204 32.5001C23.4204 33.0001 25.3204 32.8001 25.4204 32.8001C26.2204 32.7001 27.2204 32.4001 27.7204 31.8001C28.4204 31.0001 27.9204 29.4001 27.8204 28.4001C27.5204 26.4001 27.7204 24.2001 27.6204 22.2001Z"/>
        <path d="M43.9203 18.9C41.8203 16.1 38.0203 18.1 35.3203 17.4C33.9203 17 33.9203 15.1 33.9203 14C33.9203 12.6 33.8203 11.3 33.6203 9.90003C33.5203 8.80003 33.6203 7.80003 34.3203 7.00004C34.4203 6.90004 35.2203 6.70003 35.1203 6.70003C35.5203 6.60003 35.8203 6.60003 36.2203 6.60003C37.7203 6.50003 40.8203 6.80004 40.2203 9.10004C39.9203 10.1 43.8203 9.50004 44.1203 8.50004C45.3203 3.90004 36.8203 4.80004 34.4203 5.40004C32.2203 6.00004 29.8203 7.20004 29.6203 9.80003C29.5203 11 29.9203 12.2 29.9203 13.4C30.0203 14.8 29.7203 16.2 30.2203 17.5C31.3203 20.5 35.7203 19.1 38.0203 19.2C41.8203 19.5 40.7203 24.7 40.7203 27.1C40.7203 28.4 41.9203 30.5 40.9203 31.6C40.3203 32.3 38.9203 32.3 38.1203 32.4C37.3203 32.5 35.9203 32.7 35.4203 31.9C34.4203 30.5 35.5203 28.1 35.3203 26.5C35.2203 25.6 31.2203 26.4 31.4203 27.5C31.7203 30.1 30.0203 33.6 33.8203 34.1C36.2203 34.4 39.0203 33.9 41.3203 33.2C42.5203 32.8 43.6203 32.3 44.5203 31.4C45.5203 30.5 45.2203 29.1 44.9203 27.9C44.4203 24.8 45.8203 21.4 43.9203 18.9Z"/>
        <path d="M61.3204 18.7001C61.2204 14.9001 60.6204 11.2001 60.6204 7.40009C60.6204 5.40009 56.6204 6.10009 56.6204 7.70009C56.6204 11.3001 57.1204 14.9001 57.3204 18.5001C57.3204 18.6001 57.3204 18.6001 57.3204 18.7001C55.4204 18.7001 53.4204 18.9001 51.4204 18.9001C51.6204 14.3001 50.8204 9.70009 51.0204 5.00009C51.0204 4.40009 47.1204 4.90009 47.1204 6.00009C46.9204 10.5001 47.7204 14.9001 47.6204 19.4001C47.5204 21.5001 47.4204 23.7001 47.3204 25.8001C47.3204 26.9001 47.5204 28.0001 47.6204 29.1001C47.7204 30.1001 48.1204 31.4001 47.8204 32.4001C47.6204 33.2001 51.4204 32.7001 51.7204 31.7001C52.2204 29.9001 51.5204 27.7001 51.3204 25.9001C51.1204 24.2001 51.3204 22.4001 51.4204 20.7001C53.4204 20.6001 55.5204 20.4001 57.5204 20.7001C57.6204 22.1001 57.7204 23.5001 57.8204 24.8001C57.9204 26.0001 58.0204 27.1001 58.0204 28.3001C58.0204 29.3001 58.1204 30.8001 57.8204 31.8001C57.0204 33.9001 60.9204 33.7001 61.5204 32.2001C62.2204 30.3001 62.0204 28.0001 61.9204 26.0001C61.7204 23.5001 61.3204 21.1001 61.3204 18.7001Z"/>
        <path d="M78.2205 23.0999C77.3205 20.2999 75.8205 17.8999 74.6205 15.2999C75.6205 13.3999 76.6205 11.3999 77.5205 9.39992C78.3205 7.59992 78.9205 5.59992 80.6205 4.29992C81.2205 3.89992 81.2205 3.39992 80.3205 3.29992C79.4205 3.19992 78.2205 3.49992 77.5205 3.99992C76.1205 5.29992 75.1205 6.69992 74.4205 8.39992C73.5205 10.4999 72.5205 12.4999 71.5205 14.4999C71.4205 14.5999 71.4205 14.7999 71.3205 14.8999C70.8205 15.1999 70.5205 15.6999 70.7205 16.1999C69.9205 17.7999 69.1205 19.2999 68.2205 20.7999C67.9205 15.2999 67.2205 9.69992 67.0205 4.19992C67.0205 2.89992 63.0205 3.69992 63.1205 5.19992C63.3205 12.0999 64.3205 18.8999 64.4205 25.7999C64.4205 25.7999 64.4205 25.7999 64.4205 25.8999C64.1205 26.1999 64.2205 26.3999 64.5205 26.4999C64.5205 28.2999 64.4205 29.9999 64.3205 31.7999C63.8205 32.4999 64.8205 32.8999 65.4205 32.8999H65.5205C66.2205 32.8999 68.1205 32.5999 68.2205 31.4999C68.4205 29.3999 68.5205 27.2999 68.4205 25.1999C70.0205 23.4999 71.3205 21.5999 72.5205 19.5999C73.3205 21.0999 74.0205 22.5999 74.5205 24.1999C75.4205 26.8999 76.8205 29.4999 77.6205 32.1999C78.1205 33.9999 82.1205 32.8999 81.5205 31.1999C80.5205 28.3999 79.1205 25.8999 78.2205 23.0999Z"/>
        <path d="M101.72 18.4999C101.52 17.6999 100.32 17.6999 99.4205 17.6999C99.4205 17.3999 99.4205 16.9999 99.4205 16.6999C99.3205 13.9999 99.2205 11.2999 99.0205 8.6999C98.8205 6.1999 97.4205 5.3999 95.0205 5.4999C92.6205 5.5999 89.8205 5.9999 87.5205 6.8999C84.9205 7.8999 83.4205 9.7999 82.9205 12.5999C82.4205 15.5999 83.1205 18.7999 83.3205 21.7999C83.5205 25.2999 83.4205 28.7999 83.4205 32.2999C83.4205 32.8999 87.3205 32.2999 87.3205 31.2999C87.3205 28.4999 87.3205 25.6999 87.3205 22.9999C87.3205 22.1999 87.2205 21.3999 87.2205 20.5999C88.6205 19.9999 90.9205 20.5999 92.3205 20.6999C93.4205 20.7999 94.5205 20.4999 95.5205 20.3999C95.5205 22.6999 95.6205 24.9999 95.7205 27.2999C95.7205 28.4999 96.2205 30.7999 95.3205 31.7999C94.9205 32.2999 96.8205 32.0999 96.9205 32.0999C97.7205 31.9999 98.7205 31.6999 99.2205 31.0999C100.12 29.9999 99.7205 27.2999 99.6205 25.9999C99.5205 24.0999 99.5205 22.1999 99.5205 20.2999C100.62 20.0999 101.92 19.3999 101.72 18.4999ZM87.1205 18.3999C87.0205 17.1999 86.9205 15.8999 86.8205 14.6999C86.6205 12.3999 86.9205 9.0999 89.1205 7.6999C89.7205 7.2999 90.8205 7.3999 91.5205 7.2999C92.5205 7.0999 93.5205 6.8999 94.3205 7.4999C95.5205 8.2999 95.2205 11.1999 95.2205 12.3999C95.2205 14.3999 95.4205 16.3999 95.5205 18.3999C94.9205 18.4999 94.4205 18.4999 93.8205 18.4999C91.5205 18.2999 89.2205 17.8999 87.1205 18.3999Z"/>
        <path d="M24.2204 6.7C24.7204 6.6 25.2204 6.5 25.7204 6.2C25.8204 6.1 25.9204 6 25.9204 6C26.4204 5.7 26.9204 5.2 26.6204 4.6C26.1204 3.5 26.2204 2.4 26.2204 1.2C26.2204 0.2 25.2204 0 24.4204 0C23.7204 0.1 22.2204 0.6 22.2204 1.5C22.2204 2.5 22.1204 3.5 22.3204 4.5C22.3204 4.6 22.2204 4.7 22.2204 4.9C22.1204 5.1 22.2204 5.3 22.3204 5.5V5.6C22.3204 5.7 22.3204 5.8 22.3204 5.9C22.4204 6.1 22.5204 6.3 22.7204 6.4C23.3204 6.7 23.8204 6.7 24.2204 6.7Z"/>
        </symbol>
        <symbol viewBox="0 0 29 23" id="footer-social-icon-vk">
          <g clip-path="url(#clip0_25880_89)">
          <path d="M1.74097 5.43324C1.74097 4.57821 2.25607 4.11716 3.28628 4.0501L7.25612 4.07525C7.52255 4.07525 7.70017 4.20099 7.78898 4.45247C8.19751 5.70987 8.65489 6.79542 9.16111 7.70913C9.66733 8.62284 10.329 9.67486 11.146 10.8652C11.2171 11.0161 11.3325 11.0915 11.4924 11.0915C11.6167 11.0915 11.7144 11.0328 11.7855 10.9155L11.8654 10.6389L11.892 6.28827C11.892 5.98649 11.8166 5.78531 11.6656 5.68472C11.5146 5.58413 11.2348 5.50868 10.8263 5.45839C10.5066 5.40809 10.3467 5.22367 10.3467 4.90513C10.3467 4.83807 10.3556 4.78778 10.3734 4.75425C10.7464 3.6645 11.8121 3.11963 13.5706 3.11963L15.0626 3.09448C15.7376 3.09448 16.2971 3.25375 16.7411 3.57229C17.1852 3.89083 17.4072 4.39379 17.4072 5.08117V10.7897C17.5315 10.8736 17.647 10.9155 17.7536 10.9155C18.02 10.9155 18.2509 10.7646 18.4463 10.4628C20.4001 7.88097 21.457 6.15415 21.6168 5.28235C21.6168 5.26559 21.6346 5.22367 21.6701 5.15661C21.7944 4.90513 21.9987 4.68718 22.2829 4.50277C22.5671 4.31835 22.8158 4.19261 23.0289 4.12555C23.1 4.09202 23.1799 4.07525 23.2687 4.07525H27.3984L27.6648 4.1004C28.0201 4.1004 28.2954 4.25967 28.4908 4.57821C28.5618 4.6788 28.6107 4.78778 28.6373 4.90513C28.664 5.02249 28.6817 5.13985 28.6906 5.2572C28.6995 5.37456 28.7039 5.44162 28.7039 5.45839V5.63442C28.5796 6.3218 28.2643 7.05528 27.7581 7.83487C27.2519 8.61445 26.608 9.45691 25.8265 10.3622C25.0449 11.2676 24.5565 11.8627 24.3611 12.1477C24.2012 12.3489 24.1213 12.5333 24.1213 12.701C24.1213 12.8351 24.1923 12.986 24.3344 13.1537L28.2244 17.7809C28.4375 18.0491 28.5441 18.3425 28.5441 18.6611C28.5441 19.0467 28.3842 19.3652 28.0645 19.6167C27.7448 19.8682 27.3629 20.0107 26.9188 20.0442L26.4659 20.0693H22.4161C22.3984 20.0693 22.3628 20.0735 22.3096 20.0819C22.2563 20.0903 22.2207 20.0945 22.203 20.0945C21.8122 20.0945 21.4481 19.9352 21.1106 19.6167C20.9863 19.4825 20.1514 18.4934 18.6061 16.6492C18.5173 16.5319 18.393 16.4229 18.2331 16.3223C18.1621 16.5905 18.0688 16.9761 17.9534 17.4791C17.8379 17.9821 17.7536 18.3425 17.7003 18.5605L17.6203 18.988C17.4427 19.5748 17.0697 19.9268 16.5013 20.0442L16.1283 20.0693H13.5173C12.043 20.0693 10.5732 19.4323 9.10782 18.1581C7.64245 16.8839 6.3236 15.2367 5.1513 13.2165C3.979 11.1963 2.88663 8.84498 1.87418 6.16253C1.78537 5.94458 1.74097 5.70148 1.74097 5.43324ZM17.7536 11.9466C17.3806 11.9466 17.0431 11.8502 16.7411 11.6574C16.4392 11.4646 16.2882 11.2005 16.2882 10.8652V5.08117C16.2882 4.74586 16.1994 4.50696 16.0217 4.36445C15.8441 4.22195 15.5333 4.1507 15.0892 4.1507L13.5706 4.20099C12.8068 4.20099 12.2295 4.32673 11.8388 4.57821C12.6203 4.93028 13.0111 5.5003 13.0111 6.28827V10.7143C12.9755 11.1334 12.7979 11.4813 12.4782 11.7579C12.1585 12.0346 11.8032 12.1729 11.4125 12.1729C10.8796 12.1729 10.4711 11.9298 10.1869 11.4436C8.80143 9.46529 7.77122 7.58758 7.09626 5.81046L6.85647 5.15661L3.31292 5.13146C3.08201 5.13146 2.95323 5.14404 2.92659 5.16919C2.89995 5.19433 2.88663 5.26559 2.88663 5.38294C2.88663 5.53383 2.90439 5.6931 2.93991 5.86075L3.49942 7.26904C4.99144 10.9071 6.61224 13.774 8.36181 15.8696C10.1114 17.9653 11.8299 19.0131 13.5173 19.0131H16.1816C16.2882 19.0131 16.3681 18.9838 16.4214 18.9251C16.4747 18.8664 16.5191 18.7533 16.5546 18.5856L16.6079 18.3341L17.1141 16.1211C17.2562 15.8193 17.3806 15.6182 17.4871 15.5176C17.6825 15.3331 17.9134 15.2409 18.1798 15.2409C18.6061 15.2409 19.0413 15.484 19.4854 15.9702L21.75 18.6862C21.8921 18.9041 22.0431 19.0131 22.203 19.0131H26.5991C27.132 19.0131 27.3984 18.8874 27.3984 18.6359C27.3984 18.5521 27.3718 18.4683 27.3185 18.3844L23.4552 13.8326C23.1533 13.4806 23.0023 13.1034 23.0023 12.701C23.0023 12.2986 23.1444 11.913 23.4286 11.5442C23.6595 11.2089 24.108 10.6514 24.7741 9.87185C25.4401 9.09226 26.0218 8.36297 26.5192 7.68398C27.0165 7.00499 27.3451 6.38886 27.505 5.83561L27.5849 5.50868C27.5672 5.47515 27.5583 5.42067 27.5583 5.34522C27.5583 5.26978 27.5494 5.20691 27.5316 5.15661H23.3486C23.0822 5.2572 22.8691 5.40809 22.7092 5.60928L22.5493 6.08709C22.1053 7.24389 20.9419 9.02939 19.0591 11.4436C18.6861 11.7789 18.2509 11.9466 17.7536 11.9466Z"/>
          </g>
          <defs>
          <clipPath id="clip0_25880_89">
          <rect width="28" height="22" fill="white" transform="translate(0.740967 0.0944824)"/>
          </clipPath>
          </defs>
        </symbol>
        <symbol viewBox="0 0 29 23" id="footer-social-icon-youtube">
          <path d="M18.5919 10.8872L13.3555 7.39632C13.2569 7.33139 13.1426 7.29433 13.0247 7.28908C12.9067 7.28382 12.7895 7.31056 12.6856 7.36647C12.5816 7.42237 12.4947 7.50536 12.434 7.60664C12.3733 7.70792 12.3412 7.82372 12.341 7.94177V14.9236C12.3411 15.0426 12.3737 15.1593 12.4352 15.2612C12.4967 15.3631 12.5848 15.4462 12.6901 15.5018C12.7934 15.5576 12.9101 15.584 13.0273 15.5782C13.1446 15.5724 13.2581 15.5347 13.3555 15.469L18.5919 11.9781C18.6819 11.9184 18.7557 11.8374 18.8068 11.7422C18.8579 11.647 18.8846 11.5407 18.8846 11.4327C18.8846 11.3247 18.8579 11.2183 18.8068 11.1232C18.7557 11.028 18.6819 10.9469 18.5919 10.8872ZM13.6501 13.7018V9.16359L17.0537 11.4327L13.6501 13.7018ZM26.1301 5.13814C26.0351 4.76995 25.8541 4.42959 25.6018 4.14509C25.3496 3.86059 25.0333 3.6401 24.6791 3.50177C20.9592 2.07268 14.9919 2.0945 14.741 2.0945C14.4901 2.0945 8.52279 2.07268 4.80279 3.50177C4.44861 3.6401 4.13237 3.86059 3.88011 4.14509C3.62786 4.42959 3.44681 4.76995 3.35188 5.13814C3.06824 6.20723 2.74097 8.17087 2.74097 11.4327C2.74097 14.6945 3.06824 16.6581 3.35188 17.7272C3.44681 18.0954 3.62786 18.4358 3.88011 18.7203C4.13237 19.0048 4.44861 19.2253 4.80279 19.3636C8.52279 20.7927 14.4901 20.7709 14.741 20.7709H14.8173C15.5701 20.7709 21.1337 20.7272 24.6791 19.3636C25.0333 19.2253 25.3496 19.0048 25.6018 18.7203C25.8541 18.4358 26.0351 18.0954 26.1301 17.7272C26.4137 16.6581 26.741 14.6945 26.741 11.4327C26.741 8.17087 26.4137 6.20723 26.1301 5.13814ZM24.8646 17.4C24.8217 17.5664 24.74 17.7204 24.6263 17.8493C24.5125 17.9782 24.3699 18.0785 24.2101 18.1418C20.7191 19.4836 14.8064 19.4618 14.741 19.4618C14.6755 19.4618 8.76278 19.4836 5.27188 18.1418C5.11204 18.0785 4.96943 17.9782 4.85568 17.8493C4.74193 17.7204 4.66026 17.5664 4.61733 17.4C4.35551 16.3963 4.05006 14.5527 4.05006 11.4327C4.05006 8.31268 4.35551 6.46905 4.61733 5.46541C4.66026 5.29893 4.74193 5.14495 4.85568 5.01604C4.96943 4.88712 5.11204 4.78692 5.27188 4.72359C8.76278 3.38177 14.6755 3.40359 14.741 3.40359C14.8064 3.40359 20.7191 3.38177 24.2101 4.72359C24.3699 4.78692 24.5125 4.88712 24.6263 5.01604C24.74 5.14495 24.8217 5.29893 24.8646 5.46541C25.1264 6.46905 25.4319 8.31268 25.4319 11.4327C25.4319 14.5527 25.1264 16.3963 24.8646 17.4Z"/>
        </symbol>
        <symbol viewBox="0 0 29 23" id="footer-social-icon-telegram">
          <path fill-rule="evenodd" clip-rule="evenodd" d="M24.2017 3.24739C24.3803 3.3967 24.4664 3.62938 24.4282 3.85896L21.802 19.6159C21.7654 19.8356 21.6198 20.0218 21.4154 20.1104C21.211 20.1989 20.9756 20.1778 20.7902 20.0542L12.9118 14.8019C12.7587 14.6998 12.6554 14.5382 12.6272 14.3564C12.599 14.1745 12.6483 13.9892 12.7633 13.8455L15.3739 10.5822L11.014 13.4888C10.818 13.6195 10.5669 13.6352 10.3562 13.5298L5.1039 10.9036C4.86866 10.786 4.72631 10.5394 4.74217 10.2768C4.75802 10.0143 4.92901 9.78658 5.17669 9.69812L23.5598 3.13274C23.7789 3.05446 24.0232 3.09808 24.2017 3.24739ZM7.06723 10.4172L10.6026 12.1849L18.1641 7.14399C18.4334 6.96443 18.7935 7.00798 19.0122 7.24658C19.231 7.48518 19.2432 7.84762 19.0409 8.10039L14.236 14.1066L20.6737 18.3984L22.9493 4.74506L7.06723 10.4172Z"/>
        </symbol>
        <symbol viewBox="0 0 27 35" id="footer-academy-icon">
          <path d="M13.7539 0.0444336H13.6543L0.208984 1.44443V26.1444L13.6543 34.1444L27 26.1444V1.44443L13.7539 0.0444336ZM25.1077 12.1444L13.6543 5.34443V5.24443H13.5547L13.4551 5.14443V5.24443L2.10129 12.1444V3.14443L13.5547 1.94443L25.1077 3.14443V12.1444ZM13.5547 6.84443L25.0081 13.5444L20.5263 16.1444L13.4551 11.9444V13.3444L19.3312 16.8444L18.4349 17.3444L13.4551 14.3444V15.7444L17.2397 18.0444L16.443 18.5444L13.4551 16.7444V18.1444L15.3474 19.2444L13.5547 20.3444L2.20088 13.6444L13.5547 6.84443ZM2.10129 15.1444L13.4551 21.9444V22.9444L5.58711 18.2444V19.6444L13.5547 24.4444V25.5444L5.58711 20.8444V22.2444L13.5547 27.0444L21.6219 22.1444V16.9444L25.0081 14.9444V24.9444L13.5547 31.8444L2.10129 25.0444V15.1444Z"/>
        </symbol>
        <symbol viewBox="0 0 33 22" id="camera-icon">
          <path d="M26.7504 10L32.7561 6V22L26.7504 18V10ZM24.7485 10V18C24.7485 20.2 22.9467 22 20.7447 22H4.7294C2.5273 22 0.725586 20.2 0.725586 18V10C0.725586 7.8 2.5273 6 4.7294 6H14.7389C14.7389 4.9 15.6398 4 16.7408 4V2H5.73035C5.12978 2 4.7294 1.6 4.7294 1C4.7294 0.4 5.12978 0 5.73035 0H17.7418C18.3424 0 18.7427 0.4 18.7427 1V4C19.8438 4 20.7447 4.9 20.7447 6C22.9467 6 24.7485 7.8 24.7485 10ZM12.737 10H4.7294V18H12.737V10ZM20.7447 11C20.7447 10.4 20.3443 10 19.7437 10H15.7399C15.1393 10 14.7389 10.4 14.7389 11C14.7389 11.6 15.1393 12 15.7399 12H19.7437C20.3443 12 20.7447 11.6 20.7447 11Z" fill="#63D1BB"/>
        </symbol>
        <symbol viewBox="0 0 25 24" id="phone-form-icon">
          <g>
          <path d="M17.4395 24C17.0363 24 16.7339 24 16.3306 24C11.3911 23.4074 7.7621 21.1358 5.14113 18.2717C2.52016 15.4075 0.403226 11.7532 0 6.7162C0 6.22237 0 5.82731 0 5.33349C0.100806 4.44461 0.504032 3.85202 1.10887 3.25943C1.71371 2.56808 2.72177 1.77796 3.62903 1.6792C4.33468 1.6792 5.44355 2.17302 5.84677 2.76561C6.25 3.25943 6.45161 4.34584 6.65323 5.13596C6.85484 6.02484 7.25806 7.11125 7.15726 7.90137C6.95565 9.08655 5.34274 9.58037 4.93952 10.4693C6.55242 14.1235 9.07258 16.889 12.5 18.6667C13.3065 18.1729 14.1129 16.7902 15.3226 16.7902C15.7258 16.7902 16.3306 16.9877 16.7339 17.0865C17.2379 17.1852 17.6411 17.3828 18.0444 17.5803C18.75 17.8766 20.0605 18.1729 20.4637 18.7655C20.8669 19.3581 21.1694 20.3457 21.0685 20.9383C20.7661 22.2222 18.6492 23.6049 17.4395 24Z"/>
          <path d="M12.6008 1.48147C18.5484 1.48147 23.4879 6.22217 23.4879 12.1481H25C25 5.43206 19.4557 0 12.6008 0V1.48147Z"/>
          <path d="M12.6008 9.18506V10.7653C13.4073 10.7653 14.0121 11.3579 14.0121 12.148H15.625C15.625 10.5678 14.3145 9.18506 12.6008 9.18506Z"/>
          <path d="M12.6008 6.12356C15.9274 6.12356 18.75 8.79021 18.75 12.1482H20.3629C20.3629 8.00009 16.9355 4.64209 12.7016 4.64209V6.12356H12.6008Z"/>
          </g>
        </symbol>
        <symbol viewBox="0 0 32 21" id="mail-form-icon">
          <path d="M28 0H4C1.8 0 0 1.8 0 4V17C0 19.2 1.8 21 4 21H28C30.2 21 32 19.2 32 17V4C32 1.8 30.2 0 28 0ZM2 5.3L9 10.6L2 15.9V5.3ZM30 17C30 18.1 29.1 19 28 19H4C2.9 19 2 18.1 2 17L9.8 11.1L14.2 14.4C14.7 14.8 15.4 15 16 15C16.6 15 17.3 14.8 17.8 14.4L22.2 11.1L30 17ZM30 15.8L23 10.5L30 5.2V15.8ZM17.2 13.6C16.8 13.9 16.4 14 16 14C15.6 14 15.1 13.9 14.8 13.6L10.7 10.5L9.9 9.9L2 4C2 2.9 2.9 2 4 2H28C29.1 2 30 2.9 30 4L17.2 13.6Z"/>
        </symbol>


    </svg>
