<svg width="27" height="35" fill="none" xmlns="http://www.w3.org/2000/svg"><path d="M13.754.044h-.1L.21 1.444v24.7l13.445 8 13.346-8v-24.7L13.754.044Zm11.354 12.1-11.454-6.8v-.1h-.1l-.099-.1v.1l-11.354 6.9v-9l11.454-1.2 11.553 1.2v9Zm-11.553-5.3 11.453 6.7-4.482 2.6-7.07-4.2v1.4l5.875 3.5-.896.5-4.98-3v1.4l3.785 2.3-.797.5-2.988-1.8v1.4l1.892 1.1-1.792 1.1-11.354-6.7 11.354-6.8ZM2.1 15.144l11.354 6.8v1l-7.868-4.7v1.4l7.968 4.8v1.1l-7.968-4.7v1.4l7.968 4.8 8.067-4.9v-5.2l3.386-2v10l-11.453 6.9-11.454-6.8v-9.9Z" fill="#63D1BB"/></svg>